<?xml version="1.0" encoding="UTF-8" standalone="no"?>
<!-- Created with Inkscape (http://www.inkscape.org/) -->

<svg
   width="210mm"
   height="297mm"
   viewBox="0 0 210 297"
   version="1.1"
   id="svg1"
   inkscape:version="1.3.2 (091e20e, 2023-11-25)"
   sodipodi:docname="logo.svg"
   xmlns:inkscape="http://www.inkscape.org/namespaces/inkscape"
   xmlns:sodipodi="http://sodipodi.sourceforge.net/DTD/sodipodi-0.dtd"
   xmlns="http://www.w3.org/2000/svg"
   xmlns:svg="http://www.w3.org/2000/svg">
  <sodipodi:namedview
     id="namedview1"
     pagecolor="#ffffff"
     bordercolor="#666666"
     borderopacity="1.0"
     inkscape:showpageshadow="2"
     inkscape:pageopacity="0.0"
     inkscape:pagecheckerboard="0"
     inkscape:deskcolor="#d1d1d1"
     inkscape:document-units="mm"
     inkscape:zoom="4.8001899"
     inkscape:cx="501.64682"
     inkscape:cy="260.3022"
     inkscape:window-width="2048"
     inkscape:window-height="1280"
     inkscape:window-x="0"
     inkscape:window-y="0"
     inkscape:window-maximized="0"
     inkscape:current-layer="layer1" />
  <defs
     id="defs1" />
  <g
     inkscape:label="Vrstva 1"
     inkscape:groupmode="layer"
     id="layer1">
    <text
       xml:space="preserve"
       style="font-style:normal;font-weight:normal;font-size:16.9333px;line-height:1.25;font-family:sans-serif;fill:#000000;fill-opacity:1;stroke:none;stroke-width:0.264583"
       x="92.289688"
       y="68.832016"
       id="text1"><tspan
         sodipodi:role="line"
         id="tspan1"
         style="font-style:normal;font-variant:normal;font-weight:bold;font-stretch:normal;font-size:16.9333px;font-family:'.SF NS Rounded';-inkscape-font-specification:'.SF NS Rounded Bold';stroke-width:0.264583"
         x="92.289688"
         y="68.832016">z</tspan></text>
    <text
       xml:space="preserve"
       style="font-style:normal;font-weight:normal;font-size:16.9333px;line-height:1.25;font-family:sans-serif;fill:#000000;fill-opacity:1;stroke:none;stroke-width:0.264583"
       x="116.07407"
       y="56.698299"
       id="text1-5"><tspan
         sodipodi:role="line"
         id="tspan1-7"
         style="font-style:normal;font-variant:normal;font-weight:bold;font-stretch:normal;font-size:16.9333px;font-family:'.SF NS Rounded';-inkscape-font-specification:'.SF NS Rounded Bold';stroke-width:0.264583"
         x="116.07407"
         y="56.698299">ZK</tspan></text>
    <path
       style="font-weight:bold;font-size:16.9333px;line-height:1.25;font-family:'.SF NS Rounded';-inkscape-font-specification:'.SF NS Rounded Bold';stroke-width:0.264583"
       d="m 107.1757,87.986504 h 6.96184 q 0.50436,0 0.81855,-0.272851 0.3142,-0.28112 0.3142,-0.760676 0,-0.487825 -0.3142,-0.760676 -0.30592,-0.272851 -0.81855,-0.272851 h -5.21724 v -0.06614 l 5.65546,-7.664634 q 0.16536,-0.23151 0.27285,-0.438215 0.10748,-0.214974 0.10748,-0.504361 0,-0.545702 -0.34726,-0.868162 -0.34727,-0.322461 -0.92604,-0.322461 h -6.64765 q -0.50436,0 -0.81855,0.272851 -0.30592,0.272851 -0.30592,0.760676 0,0.479556 0.30592,0.760676 0.31419,0.272851 0.81855,0.272851 h 4.93613 v 0.05788 l -5.6968,7.689438 q -0.3638,0.487825 -0.3638,0.967381 0,0.520897 0.34726,0.83509 0.34727,0.314192 0.91777,0.314192 z m 10.92231,0.157096 q 0.58705,0 0.91778,-0.338997 0.33072,-0.347265 0.33072,-0.959113 v -2.505268 l 1.19063,-1.2485 3.55533,4.373884 q 0.29765,0.37207 0.57877,0.529166 0.28939,0.157096 0.66973,0.157096 0.51263,0 0.85989,-0.347265 0.34727,-0.347265 0.34727,-0.859894 0,-0.256315 -0.13229,-0.537434 -0.12403,-0.281119 -0.40515,-0.620116 l -3.58013,-4.34908 3.29075,-3.447845 q 0.23151,-0.248046 0.33072,-0.46302 0.10749,-0.223241 0.10749,-0.487824 0,-0.487825 -0.339,-0.818553 -0.33899,-0.330729 -0.83508,-0.330729 -0.58705,0 -1.07487,0.537434 l -4.48964,4.90305 h -0.0744 v -4.134106 q 0,-0.620116 -0.33072,-0.959113 -0.33073,-0.347265 -0.91778,-0.347265 -0.58704,0 -0.91777,0.347265 -0.33073,0.338997 -0.33073,0.959113 v 9.649004 q 0,0.611848 0.33073,0.959113 0.33073,0.338997 0.91777,0.338997 z"
       id="text1-5-6"
       aria-label="ZK" />
    <text
       xml:space="preserve"
       style="font-style:normal;font-weight:normal;font-size:16.9333px;line-height:1.25;font-family:sans-serif;fill:#000000;fill-opacity:1;stroke:none;stroke-width:0.264583"
       x="125.11485"
       y="73.157272"
       id="text1-8"><tspan
         sodipodi:role="line"
         id="tspan1-8"
         style="font-style:normal;font-variant:normal;font-weight:bold;font-stretch:normal;font-size:16.9333px;font-family:'.SF NS Rounded';-inkscape-font-specification:'.SF NS Rounded Bold';stroke-width:0.264583"
         x="125.11485"
         y="73.157272">z</tspan></text>
  </g>
</svg>
